<svg width="244" height="184" viewBox="0 0 244 184" fill="none" xmlns="http://www.w3.org/2000/svg">
<path d="M29.1641 121.885C25.947 121.885 22.9809 121.059 20.2656 119.406C17.5799 117.753 15.4253 115.555 13.8021 112.81C12.2083 110.036 11.4115 106.996 11.4115 103.69V99.5286C11.4115 99.204 11.559 99.0417 11.8542 99.0417H22.0365C22.2726 99.0417 22.3906 99.204 22.3906 99.5286V103.69C22.3906 105.668 23.0547 107.379 24.3828 108.826C25.7109 110.242 27.3047 110.951 29.1641 110.951C31.053 110.951 32.6615 110.227 33.9896 108.781C35.3177 107.306 35.9818 105.609 35.9818 103.69C35.9818 101.477 34.5356 99.5434 31.6432 97.8906C31.171 97.5955 30.5512 97.2413 29.7839 96.8281C29.046 96.3854 28.1606 95.8837 27.1276 95.3229C26.0946 94.7622 25.0911 94.2161 24.1172 93.6849C23.1432 93.1241 22.1988 92.5929 21.2839 92.0911C17.9783 90.1432 15.5139 87.7083 13.8906 84.7865C12.2969 81.8351 11.5 78.5295 11.5 74.8698C11.5 71.5052 12.3264 68.4653 13.9792 65.75C15.6319 63.0642 17.7865 60.9392 20.4427 59.375C23.1285 57.7813 26.0356 56.9844 29.1641 56.9844C32.3811 56.9844 35.3325 57.7813 38.0182 59.375C40.704 60.9983 42.8437 63.1528 44.4375 65.8385C46.0608 68.5243 46.8724 71.5347 46.8724 74.8698V82.3073C46.8724 82.5434 46.7543 82.6615 46.5182 82.6615H36.3359C36.0998 82.6615 35.9818 82.5434 35.9818 82.3073L35.8932 74.8698C35.8932 72.7448 35.2292 71.0182 33.901 69.6901C32.5729 68.362 30.9939 67.6979 29.1641 67.6979C27.3047 67.6979 25.7109 68.4063 24.3828 69.8229C23.0547 71.2396 22.3906 72.9219 22.3906 74.8698C22.3906 76.8472 22.8038 78.5 23.6302 79.8281C24.4861 81.1563 26.0356 82.4253 28.2786 83.6354C28.5148 83.7535 29.0608 84.0486 29.9167 84.5208C30.7726 84.9931 31.717 85.5243 32.75 86.1146C33.8125 86.6753 34.7717 87.1918 35.6276 87.6641C36.4835 88.1068 37 88.3724 37.1771 88.4609C40.1875 90.1432 42.5634 92.2092 44.3047 94.6589C46.0755 97.1085 46.9609 100.119 46.9609 103.69C46.9609 107.143 46.1641 110.242 44.5703 112.987C42.947 115.732 40.7925 117.901 38.1068 119.495C35.421 121.089 32.4401 121.885 29.1641 121.885Z" fill="white"/>
<path d="M70.7344 121H60.5078C60.2422 121 60.1094 120.852 60.1094 120.557V68.849H48.3333C48.0382 68.849 47.8906 68.7014 47.8906 68.4063L47.9792 58.2682C47.9792 58.0321 48.0972 57.9141 48.3333 57.9141H82.776C83.1007 57.9141 83.263 58.0321 83.263 58.2682V68.4063C83.263 68.7014 83.145 68.849 82.9089 68.849H71L71.0885 120.557C71.0885 120.852 70.9705 121 70.7344 121Z" fill="#C7C7CC"/>
<path d="M79.1458 120.557L90.3906 58.2682C90.4496 58.0321 90.5972 57.9141 90.8333 57.9141H103.982C104.218 57.9141 104.365 58.0321 104.424 58.2682L115.227 120.557C115.256 120.852 115.138 121 114.872 121H104.823C104.528 121 104.365 120.852 104.336 120.557L103.362 113.917H91.0104L90.0365 120.557C90.0069 120.852 89.8594 121 89.5937 121H79.5C79.2639 121 79.1458 120.852 79.1458 120.557ZM96.8984 78.7656L92.8255 104.221H101.547L97.8281 78.7656L97.2969 75.401L96.8984 78.7656Z" fill="#00C0E8"/>
<path d="M135.635 121.885C132.359 121.885 129.408 121.074 126.781 119.451C124.125 117.827 121.985 115.643 120.362 112.898C118.768 110.154 117.971 107.084 117.971 103.69V74.9583C117.971 71.6528 118.783 68.6424 120.406 65.9271C122 63.1823 124.14 60.9983 126.826 59.375C129.511 57.7222 132.448 56.8958 135.635 56.8958C138.97 56.8958 141.981 57.6927 144.667 59.2865C147.352 60.9097 149.477 63.079 151.042 65.7943C152.635 68.5096 153.432 71.5642 153.432 74.9583V79.1198C153.432 79.3559 153.285 79.474 152.99 79.474H142.807C142.571 79.474 142.453 79.3559 142.453 79.1198V75.6667C142.453 73.3646 141.804 71.4609 140.505 69.9557C139.207 68.4505 137.583 67.6979 135.635 67.6979C133.894 67.6979 132.345 68.421 130.987 69.8672C129.629 71.3134 128.951 73.0104 128.951 74.9583V103.69C128.951 105.668 129.615 107.379 130.943 108.826C132.271 110.242 133.835 110.951 135.635 110.951C137.583 110.951 139.207 110.257 140.505 108.87C141.804 107.453 142.453 105.727 142.453 103.69V99.2188H136.122C135.798 99.2188 135.635 99.0712 135.635 98.776V88.638C135.635 88.3429 135.798 88.1953 136.122 88.1953H153.078C153.314 88.1953 153.432 88.3429 153.432 88.638V103.69C153.432 107.084 152.635 110.154 151.042 112.898C149.418 115.643 147.279 117.827 144.622 119.451C141.966 121.074 138.97 121.885 135.635 121.885Z" fill="#34C759"/>
<path d="M189.513 121H160.206C159.97 121 159.852 120.852 159.852 120.557L159.94 58.2682C159.94 58.0321 160.058 57.9141 160.294 57.9141H189.424C189.661 57.9141 189.779 58.0616 189.779 58.3568V68.4948C189.779 68.7309 189.661 68.849 189.424 68.849H170.831V83.0156H189.424C189.661 83.0156 189.779 83.1337 189.779 83.3698L189.867 93.6406C189.867 93.8767 189.749 93.9948 189.513 93.9948H170.831V109.844H189.513C189.749 109.844 189.867 109.991 189.867 110.286V120.646C189.867 120.882 189.749 121 189.513 121Z" fill="#FFCC00"/>
<path d="M213.331 121.885C210.114 121.885 207.148 121.059 204.432 119.406C201.747 117.753 199.592 115.555 197.969 112.81C196.375 110.036 195.578 106.996 195.578 103.69V99.5286C195.578 99.204 195.726 99.0417 196.021 99.0417H206.203C206.439 99.0417 206.557 99.204 206.557 99.5286V103.69C206.557 105.668 207.221 107.379 208.549 108.826C209.878 110.242 211.471 110.951 213.331 110.951C215.22 110.951 216.828 110.227 218.156 108.781C219.484 107.306 220.148 105.609 220.148 103.69C220.148 101.477 218.702 99.5434 215.81 97.8906C215.338 97.5955 214.718 97.2413 213.951 96.8281C213.213 96.3854 212.327 95.8837 211.294 95.3229C210.261 94.7622 209.258 94.2161 208.284 93.6849C207.31 93.1241 206.365 92.5929 205.451 92.0911C202.145 90.1432 199.681 87.7083 198.057 84.7865C196.464 81.8351 195.667 78.5295 195.667 74.8698C195.667 71.5052 196.493 68.4653 198.146 65.75C199.799 63.0642 201.953 60.9392 204.609 59.375C207.295 57.7813 210.202 56.9844 213.331 56.9844C216.548 56.9844 219.499 57.7813 222.185 59.375C224.871 60.9983 227.01 63.1528 228.604 65.8385C230.227 68.5243 231.039 71.5347 231.039 74.8698V82.3073C231.039 82.5434 230.921 82.6615 230.685 82.6615H220.503C220.266 82.6615 220.148 82.5434 220.148 82.3073L220.06 74.8698C220.06 72.7448 219.396 71.0182 218.068 69.6901C216.74 68.362 215.161 67.6979 213.331 67.6979C211.471 67.6979 209.878 68.4063 208.549 69.8229C207.221 71.2396 206.557 72.9219 206.557 74.8698C206.557 76.8472 206.97 78.5 207.797 79.8281C208.653 81.1563 210.202 82.4253 212.445 83.6354C212.681 83.7535 213.227 84.0486 214.083 84.5208C214.939 84.9931 215.884 85.5243 216.917 86.1146C217.979 86.6753 218.938 87.1918 219.794 87.6641C220.65 88.1068 221.167 88.3724 221.344 88.4609C224.354 90.1432 226.73 92.2092 228.471 94.6589C230.242 97.1085 231.128 100.119 231.128 103.69C231.128 107.143 230.331 110.242 228.737 112.987C227.114 115.732 224.959 117.901 222.273 119.495C219.588 121.089 216.607 121.885 213.331 121.885Z" fill="#FF5F57"/>
</svg>
